<svg width="391" height="101" viewBox="0 0 391 101" fill="none" xmlns="http://www.w3.org/2000/svg">
<path fill-rule="evenodd" clip-rule="evenodd" d="M80.4506 62.7749C78.7051 61.0173 77.8323 58.8537 77.8323 56.2839C77.8323 53.7141 78.7051 51.5505 80.4506 49.7929C82.1961 48.0336 84.3611 47.1543 86.9457 47.1552C89.5763 47.1552 91.7641 48.0345 93.5086 49.7929C94.594 50.8642 95.3792 52.1989 95.7863 53.6647C96.2404 55.3816 96.2404 57.1861 95.7863 58.903C95.3792 60.3688 94.594 61.7035 93.5086 62.7749C91.7631 64.5333 89.5755 65.4125 86.9457 65.4125C84.3603 65.4125 82.1952 64.5333 80.4506 62.7749ZM357.109 48.1685C358.854 49.9261 359.727 52.0897 359.728 54.6595C359.73 57.2293 358.856 59.3929 357.109 61.1505C355.365 62.9089 353.2 63.7881 350.615 63.7881C347.985 63.7881 345.796 62.9089 344.052 61.1505C342.966 60.0789 342.181 58.7444 341.773 57.2786C341.321 55.5615 341.321 53.7574 341.773 52.0403C342.181 50.5745 342.966 49.2401 344.052 48.1685C345.798 46.4109 347.985 45.5317 350.615 45.5308C353.199 45.5308 355.363 46.4101 357.109 48.1685ZM341.773 71.0106C344.326 72.1923 347.205 72.7828 350.41 72.7819C355.852 72.7819 360.408 71.0239 364.08 67.5078C367.752 63.9918 369.588 59.6646 369.588 54.5259C369.588 49.3872 367.809 45.1045 364.25 41.6775C360.692 38.2505 356.192 36.538 350.751 36.5397C347.429 36.5397 344.437 37.2011 341.773 38.5239V37.2157H331.913V84.5455H341.773V71.0106ZM292.947 43.4355C289.275 46.9524 287.439 51.2801 287.439 56.4188C287.439 61.5575 289.217 65.8402 292.776 69.2672C296.337 72.6923 300.836 74.4049 306.276 74.4049C311.716 74.4049 316.273 72.6359 319.946 69.0979C323.618 65.558 325.454 61.2188 325.454 56.0802C325.454 50.9415 323.674 46.6728 320.114 43.2741C316.554 39.8702 312.054 38.1681 306.614 38.1681C301.174 38.1681 296.617 39.9261 292.944 43.4421L292.947 43.4355ZM306.412 47.1552C309.042 47.1552 311.231 48.0345 312.975 49.7929C314.719 51.5513 315.592 53.715 315.593 56.2839C315.593 58.8528 314.72 61.0165 312.975 62.7749C311.229 64.5333 309.042 65.4125 306.412 65.4125C303.828 65.4125 301.664 64.5333 299.918 62.7749C298.173 61.0165 297.3 58.8528 297.3 56.2839C297.3 53.7133 298.173 51.5496 299.918 49.7929C301.664 48.0362 303.828 47.1569 306.412 47.1552ZM263.636 47.1552C266.265 47.1552 268.452 48.0345 270.199 49.7929C271.946 51.5513 272.819 53.715 272.817 56.2839C272.817 58.8528 271.945 61.0165 270.199 62.7749C268.454 64.5333 266.266 65.4125 263.636 65.4125C261.051 65.4125 258.885 64.5333 257.141 62.7749C255.397 61.0165 254.524 58.8528 254.523 56.2839C254.523 53.7133 255.396 51.5496 257.141 49.7929C258.887 48.0362 261.051 47.1569 263.636 47.1552ZM250.17 43.4355C246.498 46.9524 244.662 51.2801 244.662 56.4188C244.662 61.5575 246.442 65.8402 250.001 69.2672C253.56 72.6923 258.06 74.4049 263.5 74.4049C268.941 74.4049 273.497 72.6359 277.169 69.0979C280.842 65.558 282.678 61.2188 282.677 56.0802C282.676 50.9415 280.896 46.6728 277.337 43.2741C273.778 39.8702 269.278 38.1681 263.837 38.1681C258.396 38.1681 253.839 39.9261 250.167 43.4421L250.17 43.4355ZM227.861 26.3965V74.4049H237.858V26.3965H227.861ZM160.398 43.4355C156.726 46.9524 154.89 51.2801 154.89 56.4188C154.89 61.5575 156.669 65.8402 160.228 69.2672C163.788 72.6923 168.288 74.4049 173.728 74.4049C179.168 74.4049 183.724 72.6359 187.398 69.0979C191.07 65.558 192.906 61.2188 192.906 56.0802C192.906 50.9415 191.127 46.6728 187.568 43.2741C184.008 39.8702 179.508 38.1681 174.068 38.1681C168.628 38.1681 164.071 39.9261 160.398 43.4421V43.4355ZM167.37 49.7929C169.115 48.0336 171.28 47.1543 173.863 47.1552C176.494 47.1552 178.681 48.0345 180.426 49.7929C182.172 51.5513 183.045 53.715 183.045 56.2839C183.045 58.8528 182.172 61.0165 180.426 62.7749C178.681 64.5333 176.494 65.4125 173.863 65.4125C171.28 65.4125 169.115 64.5333 167.37 62.7749C165.624 61.0165 164.751 58.8528 164.751 56.2839C164.751 53.7133 165.624 51.5496 167.37 49.7929ZM150.129 56.0802C150.129 50.9424 148.35 46.6715 144.791 43.2675C141.232 39.8635 136.733 38.1615 131.291 38.1615C125.852 38.1615 121.295 39.9195 117.621 43.4355C113.947 46.9515 112.112 51.2793 112.115 56.4188C112.115 61.5575 113.894 65.8402 117.454 69.2672C121.013 72.6942 125.513 74.4067 130.953 74.4049C136.393 74.4049 140.95 72.6359 144.622 69.0979C148.294 65.5598 150.13 61.2206 150.13 56.0802H150.129ZM131.088 47.1552C133.718 47.1552 135.906 48.0345 137.651 49.7929C139.395 51.5513 140.268 53.715 140.269 56.2839C140.269 58.8528 139.396 61.0165 137.651 62.7749C135.905 64.5333 133.718 65.4125 131.088 65.4125C128.502 65.4125 126.337 64.5333 124.593 62.7749C122.848 61.0165 121.975 58.8528 121.974 56.2839C121.974 53.7133 122.847 51.5496 124.593 49.7929C126.338 48.0362 128.503 47.1569 131.088 47.1552ZM199.368 38.8388V74.4049H209.227V59.3263C209.227 51.8878 212.673 48.1689 219.565 48.1698H221.608L221.741 38.1615C215.925 38.1615 211.754 40.3048 209.227 44.5916V38.8388H199.368ZM95.7917 39.934C93.2399 38.7532 90.3609 38.1624 87.1546 38.1615C81.7149 38.1615 77.1587 39.9195 73.4858 43.4355C69.8129 46.9515 67.9766 51.2793 67.9766 56.4188C67.9766 61.5575 69.7563 65.8402 73.3155 69.2672C76.8748 72.6942 81.3748 74.4067 86.8153 74.4049C90.137 74.4049 93.1291 73.7435 95.7917 72.4207L95.7863 74.4049H105.653V26.3965H95.7917V39.934Z" fill="#162050"/>
<path d="M382.834 37.5239C384.273 37.5239 385.556 37.8469 386.683 38.4928C387.834 39.1388 388.722 40.0359 389.345 41.1842C389.993 42.3086 390.316 43.5885 390.316 45.0239C390.316 46.4593 389.993 47.7512 389.345 48.8995C388.722 50.0239 387.834 50.9091 386.683 51.555C385.556 52.201 384.273 52.5239 382.834 52.5239C381.396 52.5239 380.101 52.201 378.95 51.555C377.822 50.9091 376.935 50.0239 376.288 48.8995C375.64 47.7512 375.316 46.4593 375.316 45.0239C375.316 43.5885 375.64 42.3086 376.288 41.1842C376.935 40.0359 377.822 39.1388 378.95 38.4928C380.101 37.8469 381.396 37.5239 382.834 37.5239ZM382.834 50.8732C384.561 50.8732 385.94 50.3349 386.971 49.2584C388.026 48.1818 388.554 46.7703 388.554 45.0239C388.554 43.2775 388.026 41.866 386.971 40.7895C385.94 39.7129 384.561 39.1747 382.834 39.1747C381.084 39.1747 379.693 39.7129 378.662 40.7895C377.631 41.866 377.115 43.2775 377.115 45.0239C377.115 46.7703 377.631 48.1818 378.662 49.2584C379.693 50.3349 381.084 50.8732 382.834 50.8732ZM386.144 43.5885C386.144 44.1148 386.012 44.5814 385.748 44.9881C385.484 45.3708 385.125 45.6579 384.669 45.8493L386.575 48.7919H383.842L382.259 46.1005H382.007V48.7919H379.741V41.0766H383.374C384.213 41.0766 384.885 41.3158 385.388 41.7943C385.892 42.2488 386.144 42.8469 386.144 43.5885ZM382.007 44.2703H383.23C383.422 44.2703 383.578 44.2225 383.698 44.1268C383.842 44.0072 383.914 43.8517 383.914 43.6603C383.914 43.4689 383.842 43.3254 383.698 43.2297C383.578 43.134 383.422 43.0861 383.23 43.0861H382.007V44.2703Z" fill="#162050"/>
<path fill-rule="evenodd" clip-rule="evenodd" d="M28.9726 86.266C24.8332 86.8833 20.5448 87.5293 16.1074 88.2039C13.6381 88.5809 11.584 86.7382 11.584 84.1151V68.6066V50.5159C11.584 50.4247 11.584 50.3347 11.584 50.2434C11.584 47.0859 9.06284 44.4469 5.9297 44.3755C2.70343 44.3027 0 46.943 0 50.2448V91.6551C0 94.6803 1.24128 97.2029 3.22095 98.8181C5.15671 100.415 7.7936 101.067 10.6394 100.527L20.0734 98.6752C23.1121 98.0839 26.0709 97.4847 28.9646 96.9159L37.1081 95.3139L44.8245 93.7954C46.9173 93.3787 48.7759 92.0347 50.1023 90.159C51.4692 88.2161 52.2034 85.9029 52.2057 83.5317V56.0479C51.1032 57.0598 49.6573 57.6211 48.1567 57.6194C46.6562 57.6177 45.2115 57.0532 44.1114 56.0386V65.0337L44.13 79.7843C44.13 82.0925 42.5429 84.2037 40.5698 84.4987C36.834 85.0755 32.9612 85.6707 28.9726 86.266Z" fill="#162050"/>
<path fill-rule="evenodd" clip-rule="evenodd" d="M44.1138 34.4819V50.2232V50.4878C44.2309 53.1135 46.0602 55.1811 48.2381 55.1321C50.3668 55.0845 52.0857 53.0156 52.2001 50.4851V17.2167C52.1944 14.8392 51.4566 12.5204 50.086 10.5722C48.7556 8.70575 46.893 7.30491 44.787 6.90013L37.0812 5.38685L28.9656 3.78626L20.0944 2.04545L10.6817 0.193528C7.83725 -0.375277 5.18969 0.34036 3.24727 1.9383C1.26894 3.55344 0.0117188 6.09719 0.0117188 9.12244V40.1739V44.2838C1.5524 42.754 3.63894 41.8919 5.81633 41.8856L5.83627 41.8962H5.99595C8.10328 41.943 10.1113 42.7958 11.6023 44.2772V40.1765V33.585V16.6346C11.6023 14.0115 13.6591 12.1874 16.1257 12.5617C20.5534 13.2205 24.8343 13.8696 28.9683 14.5089C32.9409 15.1161 36.8178 15.6888 40.5429 16.2563C42.516 16.55 44.1031 18.6691 44.1031 20.9483L44.1138 34.4819Z" fill="#162050"/>
<path fill-rule="evenodd" clip-rule="evenodd" d="M25.2366 47.7725C26.273 48.1838 27.002 49.2619 27.002 50.5173C27.002 52.1139 25.8233 53.4155 24.3292 53.4274C24.264 53.4274 24.1962 53.4274 24.1363 53.4274C22.7314 53.3362 21.6085 52.0769 21.6085 50.5173C21.6085 48.8889 22.8405 47.578 24.3346 47.5939C24.6436 47.5981 24.9493 47.6586 25.2366 47.7725ZM39.0982 62.9714C39.0982 58.7755 39.0982 54.5597 39.0982 50.3638C39.0982 46.1679 39.0982 41.9997 39.0982 37.8038C39.0982 33.6079 39.0982 29.3921 39.0876 25.1856C39.0876 23.3152 37.7572 21.614 36.1221 21.405C33.7832 21.1114 31.3978 20.819 28.9697 20.5095C26.4752 20.192 23.9487 19.8746 21.3478 19.5505C19.4639 19.3071 17.8887 20.7966 17.8887 22.8469C17.8887 27.4327 17.8887 32.0249 17.8887 36.6239C17.8887 41.2229 17.8887 45.8054 17.8887 50.3718V77.886C17.8887 79.9364 19.4546 81.4245 21.3385 81.193C23.9447 80.8676 26.4819 80.5475 28.9711 80.238C31.4092 79.9354 33.7969 79.6348 36.1341 79.3358C37.7838 79.1281 39.1102 77.4138 39.1102 75.5328C39.1036 71.3448 39.0982 67.1674 39.0982 62.9714Z" fill="#162050"/>
</svg>
